<svg width="30" height="30" viewBox="0 0 30 30" fill="none" xmlns="http://www.w3.org/2000/svg">
<path d="M8.32738 13.2283L7.4024 9.19067H11.4739H16.1729H20.8719H23.0937C24.0494 9.19067 24.7614 10.0726 24.56 11.0068L24.0796 13.2346L23.4175 16.3054C23.2686 16.9961 22.6578 17.4892 21.9512 17.4892H19.9007H16.2355H12.5703H9.30352L8.32738 13.2283Z" stroke="#F3F3F3"/>
<path d="M3.84985 7H6.09092C6.55534 7 6.95864 7.31975 7.06456 7.77193L7.81139 10.9602" stroke="#F3F3F3" stroke-linecap="round"/>
<path d="M24.0459 20.5858C24.322 20.5858 24.5459 20.3619 24.5459 20.0858C24.5459 19.8096 24.322 19.5858 24.0459 19.5858V20.5858ZM24.0459 19.5858H8.56633V20.5858H24.0459V19.5858ZM8.56633 18H16.1171V17H8.56633V18ZM8.56633 19.5858C8.12843 19.5858 7.77344 19.2308 7.77344 18.7929H6.77344C6.77344 19.7831 7.57614 20.5858 8.56633 20.5858V19.5858ZM7.77344 18.7929C7.77344 18.355 8.12843 18 8.56633 18V17C7.57614 17 6.77344 17.8027 6.77344 18.7929H7.77344Z" fill="#F3F3F3"/>
<path d="M13.6354 21.84C13.6354 22.7303 12.8625 23.5001 11.8482 23.5001C10.8339 23.5001 10.061 22.7303 10.061 21.84C10.061 20.9497 10.8339 20.1799 11.8482 20.1799C12.8625 20.1799 13.6354 20.9497 13.6354 21.84Z" stroke="#F3F3F3"/>
<path d="M22.0216 21.84C22.0216 22.7303 21.2488 23.5001 20.2344 23.5001C19.2201 23.5001 18.4473 22.7303 18.4473 21.84C18.4473 20.9497 19.2201 20.1799 20.2344 20.1799C21.2488 20.1799 22.0216 20.9497 22.0216 21.84Z" stroke="#F3F3F3"/>
</svg>


