<svg width="32" height="32" viewBox="0 0 32 32" fill="none" xmlns="http://www.w3.org/2000/svg">
<path d="M5.5 10.1C4.94772 10.1 4.5 9.65226 4.5 9.09998C4.5 8.54769 4.94772 8.09998 5.5 8.09998H26.2C26.7523 8.09998 27.2 8.54769 27.2 9.09998C27.2 9.65226 26.7523 10.1 26.2 10.1H5.5Z" fill="#384551"/>
<path fill-rule="evenodd" clip-rule="evenodd" d="M11.2508 10.1C11.8031 10.1 12.2508 9.65228 12.2508 9.1V6.8C12.2508 6.08203 12.8328 5.5 13.5508 5.5H18.1508C18.8688 5.5 19.4508 6.08203 19.4508 6.8V9.1C19.4508 9.65228 19.8985 10.1 20.4508 10.1C21.0031 10.1 21.4508 9.65228 21.4508 9.1V6.8C21.4508 4.97746 19.9733 3.5 18.1508 3.5H13.5508C11.7282 3.5 10.2508 4.97746 10.2508 6.8V9.1C10.2508 9.65228 10.6985 10.1 11.2508 10.1ZM23.9008 8.1C23.3485 8.1 22.9008 8.54772 22.9008 9.1V25.2C22.9008 25.918 22.3188 26.5 21.6008 26.5H10.1008C9.38281 26.5 8.80078 25.918 8.80078 25.2V9.1C8.80078 8.54772 8.35307 8.1 7.80078 8.1C7.2485 8.1 6.80078 8.54772 6.80078 9.1V25.2C6.80078 27.0225 8.27824 28.5 10.1008 28.5H21.6008C23.4233 28.5 24.9008 27.0225 24.9008 25.2V9.1C24.9008 8.54772 24.4531 8.1 23.9008 8.1Z" fill="#384551"/>
<path d="M12.5508 14.85C12.5508 14.2977 12.9985 13.85 13.5508 13.85C14.1031 13.85 14.5508 14.2977 14.5508 14.85V21.75C14.5508 22.3023 14.1031 22.75 13.5508 22.75C12.9985 22.75 12.5508 22.3023 12.5508 21.75V14.85Z" fill="#384551"/>
<path d="M17.1504 14.85C17.1504 14.2977 17.5981 13.85 18.1504 13.85C18.7027 13.85 19.1504 14.2977 19.1504 14.85V21.75C19.1504 22.3023 18.7027 22.75 18.1504 22.75C17.5981 22.75 17.1504 22.3023 17.1504 21.75V14.85Z" fill="#384551"/>
</svg>
